mtllib Untitled-4 copy.mtl
v 116.594788 365.585419 -44.261616
v 125.518311 374.508942 1.578478
v 141.509399 319.744781 1.578478
v 125.518311 319.744781 -53.185135
v 116.594788 365.585419 47.418575
v 125.518311 319.744781 56.342091
v 116.594788 273.904694 47.418575
v 125.518311 264.981171 1.578478
v 116.594788 273.904694 -44.261616
v 0.000000 319.744781 1.578478
v 15.991085 319.744781 -53.185135
v 24.914604 273.904694 -44.261616
v 15.991085 264.981171 1.578478
v 70.754700 319.744781 -69.176216
v 125.518311 319.744781 -53.185135
v 116.594788 273.904694 -44.261616
v 70.754700 264.981171 -53.185135
v 70.754700 319.744781 72.333176
v 15.991085 319.744781 56.342091
v 24.914604 273.904694 47.418575
v 70.754700 264.981171 56.342091
v 70.754700 248.990082 1.578478
v 70.754700 264.981171 -53.185135
v 116.594788 273.904694 -44.261616
v 125.518311 264.981171 1.578478
v 70.754700 390.500000 1.578478
v 70.754700 374.508942 -53.185135
v 24.914604 365.585419 -44.261616
v 15.991085 374.508942 1.578478
v 15.991085 319.744781 56.342091
v 24.914604 273.904694 47.418575
v 24.914604 365.585419 47.418575
v 15.991085 374.508942 1.578478
v 24.914604 365.585419 -44.261616
v 15.991085 319.744781 -53.185135
v 24.914604 273.904694 -44.261616
v 24.914604 365.585419 -44.261616
v 70.754700 374.508942 -53.185135
v 116.594788 365.585419 -44.261616
v 125.518311 319.744781 56.342091
v 116.594788 273.904694 47.418575
v 116.594788 365.585419 47.418575
v 70.754700 374.508942 56.342091
v 24.914604 365.585419 47.418575
v 70.754700 264.981171 56.342091
v 116.594788 273.904694 47.418575
v 24.914604 273.904694 47.418575
v 15.991085 264.981171 1.578478
v 24.914604 273.904694 -44.261616
v 70.754700 374.508942 56.342091
v 24.914604 365.585419 47.418575
v 116.594788 365.585419 47.418575
v 125.518311 374.508942 1.578478
v 116.594788 365.585419 -44.261616
v 14.805935 206.353516 0.637507
v 23.729454 188.050064 -45.202587
v 23.729454 0.000000 -45.202587
v 69.569550 206.353516 -54.126648
v 115.410187 188.050064 -45.202587
v 115.410187 0.000000 -45.202587
v 124.333702 206.353516 0.637507
v 115.410187 188.050064 46.477600
v 115.410187 0.000000 46.477600
v 69.569550 206.353516 55.401119
v 23.729454 188.050064 46.477600
v 23.729454 0.000000 46.477600
v 23.729454 0.000000 46.477600
v 23.729454 0.000000 -45.202587
v 115.410187 0.000000 -45.202587
v 115.410187 0.000000 46.477600
v 69.569550 239.153748 0.637507
v 69.569550 206.353516 -54.126648
v 23.729454 188.050064 -45.202587
v 14.805935 206.353516 0.637507
v 23.729454 188.050064 46.477600
v 23.729454 0.000000 46.477600
v 23.729454 188.050064 -45.202587
v 23.729454 0.000000 -45.202587
v 115.410187 188.050064 -45.202587
v 115.410187 0.000000 -45.202587
v 115.410187 188.050064 46.477600
v 115.410187 0.000000 46.477600
v 69.569550 206.353516 55.401119
v 23.729454 188.050064 46.477600
v 115.410187 188.050064 46.477600
v 124.333702 206.353516 0.637507
v 115.410187 188.050064 -45.202587
v 52.260132 104.733032 93.333382
v 52.260132 104.733032 63.995461
v 52.260132 75.395126 63.995461
v 52.260132 75.395126 93.333382
v 52.260132 104.733032 63.995461
v 81.597511 104.733032 63.995461
v 81.597511 75.395126 63.995461
v 52.260132 75.395126 63.995461
v 81.597511 104.733032 63.995461
v 81.597511 104.733032 93.333382
v 81.597511 75.395126 93.333382
v 81.597511 75.395126 63.995461
v 81.597511 104.733032 93.333382
v 52.260132 104.733032 93.333382
v 52.260132 75.395126 93.333382
v 81.597511 75.395126 93.333382
v 52.260132 75.395126 93.333382
v 52.260132 75.395126 63.995461
v 81.597511 75.395126 63.995461
v 81.597511 75.395126 93.333382
v 81.597511 104.733032 93.333382
v 81.597511 104.733032 63.995461
v 52.260132 104.733032 63.995461
v 52.260132 104.733032 93.333382
v 52.260132 109.267342 -63.996010
v 52.260132 109.267342 -93.333382
v 52.260132 79.929428 -93.333382
v 52.260132 79.929428 -63.996010
v 52.260132 109.267342 -93.333382
v 81.597511 109.267342 -93.333382
v 81.597511 79.929428 -93.333382
v 52.260132 79.929428 -93.333382
v 81.597511 109.267342 -93.333382
v 81.597511 109.267342 -63.996010
v 81.597511 79.929428 -63.996010
v 81.597511 79.929428 -93.333382
v 81.597511 109.267342 -63.996010
v 52.260132 109.267342 -63.996010
v 52.260132 79.929428 -63.996010
v 81.597511 79.929428 -63.996010
v 52.260132 79.929428 -63.996010
v 52.260132 79.929428 -93.333382
v 81.597511 79.929428 -93.333382
v 81.597511 79.929428 -63.996010
v 81.597511 109.267342 -63.996010
v 81.597511 109.267342 -93.333382
v 52.260132 109.267342 -93.333382
v 52.260132 109.267342 -63.996010
vt 0.669090 0.546863
vt 0.480088 0.574010
vt 0.456641 0.347866
vt 0.729390 0.350601
vt 0.340440 0.519312
vt 0.283771 0.355128
vt 0.323779 0.174141
vt 0.481450 0.092582
vt 0.699257 0.131277
vt 0.725512 0.771915
vt 0.703950 0.659046
vt 0.802031 0.659229
vt 0.838512 0.750158
vt 0.499839 0.771852
vt 0.521729 0.659046
vt 0.612730 0.695635
vt 0.612839 0.793609
vt 0.274163 0.771915
vt 0.252601 0.659046
vt 0.350683 0.659229
vt 0.387164 0.750158
vt 0.274326 0.546208
vt 0.252600 0.433370
vt 0.350591 0.433571
vt 0.387164 0.524482
vt 0.725677 0.546208
vt 0.747403 0.659046
vt 0.649412 0.658845
vt 0.612839 0.567934
vt 0.747402 0.884721
vt 0.838403 0.848132
vt 0.649503 0.884503
vt 0.612839 0.793609
vt 0.613131 0.695600
vt 0.478277 0.884721
vt 0.576359 0.884538
vt 0.387458 0.848167
vt 0.387167 0.750158
vt 0.423830 0.659264
vt 0.296053 0.884721
vt 0.387054 0.848132
vt 0.198154 0.884503
vt 0.161491 0.793609
vt 0.161783 0.695600
vt 0.296052 0.659046
vt 0.386963 0.622473
vt 0.198060 0.658845
vt 0.161488 0.567934
vt 0.161689 0.469942
vt 0.703951 0.433370
vt 0.613040 0.469942
vt 0.801943 0.433571
vt 0.838515 0.524482
vt 0.838314 0.622473
vt 0.484678 0.433370
vt 0.388374 0.395166
vt 0.387164 0.000590
vt 0.096068 0.433370
vt 0.000000 0.394576
vt 0.001211 0.000000
vt 0.678260 0.433370
vt 0.581956 0.395166
vt 0.580746 0.000590
vt 0.289649 0.000000
vt 0.385953 0.038204
vt 0.387164 0.432780
vt 0.967289 0.432780
vt 0.774917 0.433370
vt 0.774327 0.240999
vt 0.966699 0.240408
vt 0.500001 0.546208
vt 0.521727 0.433370
vt 0.612639 0.469942
vt 0.612839 0.567934
vt 0.580746 0.394576
vt 0.579535 0.000000
vt 0.192371 0.395166
vt 0.193582 0.000590
vt 0.774327 0.394576
vt 0.773117 0.000000
vt 0.193582 0.038794
vt 0.194792 0.433370
vt 0.478276 0.659046
vt 0.576267 0.658845
vt 0.387364 0.622473
vt 0.387164 0.524482
vt 0.423736 0.433571
vt 0.038182 0.618613
vt 0.037994 0.557054
vt 0.099552 0.556866
vt 0.099740 0.618424
vt 0.038182 0.803856
vt 0.037994 0.742297
vt 0.099552 0.742108
vt 0.099740 0.803667
vt 0.099929 0.742109
vt 0.099740 0.680550
vt 0.161299 0.680361
vt 0.161487 0.741920
vt 0.038182 0.680361
vt 0.037994 0.618802
vt 0.099552 0.618613
vt 0.099740 0.680172
vt 0.099929 0.495118
vt 0.099740 0.433559
vt 0.161299 0.433370
vt 0.161488 0.494929
vt 0.037993 0.494929
vt 0.038182 0.433370
vt 0.099740 0.433559
vt 0.099552 0.495118
vt 0.099740 0.680550
vt 0.099552 0.742108
vt 0.037994 0.741920
vt 0.038182 0.680361
vt 0.099929 0.680361
vt 0.099740 0.618802
vt 0.161299 0.618613
vt 0.161487 0.680172
vt 0.099929 0.803856
vt 0.099740 0.742297
vt 0.161299 0.742109
vt 0.161487 0.803667
vt 0.099929 0.618613
vt 0.099740 0.557054
vt 0.161299 0.556866
vt 0.161487 0.618424
vt 0.099929 0.556866
vt 0.099740 0.495307
vt 0.161299 0.495118
vt 0.161488 0.556677
vt 0.037993 0.556677
vt 0.038182 0.495118
vt 0.099740 0.495307
vt 0.099552 0.556866
vn 0.566946 0.590133 -0.574730
vn 0.707108 0.707106 -0.000000
vn 0.999999 -0.000907 -0.000906
vn 0.703319 -0.001011 -0.710873
vn 0.587508 0.579788 0.564517
vn 0.710873 -0.001011 0.703319
vn 0.583941 -0.566488 0.581467
vn 0.707107 -0.707107 0.000000
vn 0.570619 -0.573107 -0.588169
vn -0.999999 -0.000907 0.000906
vn -0.710873 -0.001011 -0.703319
vn -0.575612 -0.583288 -0.573103
vn -0.703319 -0.710873 0.001009
vn -0.000906 -0.000907 -0.999999
vn 0.703319 -0.001011 -0.710873
vn 0.570619 -0.573107 -0.588169
vn 0.002544 -0.710871 -0.703317
vn 0.000906 -0.000907 0.999999
vn -0.703319 -0.001011 0.710873
vn -0.585703 -0.573128 0.573128
vn -0.001541 -0.707106 0.707106
vn 0.000906 -0.999999 0.000906
vn 0.002544 -0.710871 -0.703317
vn 0.570619 -0.573107 -0.588169
vn 0.707107 -0.707107 0.000000
vn -0.000906 0.999999 0.000906
vn -0.003540 0.707101 -0.707103
vn -0.572302 0.579857 -0.579859
vn -0.710874 0.703318 0.001009
vn -0.703319 -0.001011 0.710873
vn -0.585703 -0.573128 0.573128
vn -0.575612 0.573101 0.583288
vn -0.710874 0.703318 0.001009
vn -0.572302 0.579857 -0.579859
vn -0.710873 -0.001011 -0.703319
vn -0.575612 -0.583288 -0.573103
vn -0.572302 0.579857 -0.579859
vn -0.003540 0.707101 -0.707103
vn 0.566946 0.590133 -0.574730
vn 0.710873 -0.001011 0.703319
vn 0.583941 -0.566488 0.581467
vn 0.587508 0.579788 0.564517
vn 0.002544 0.703316 0.710872
vn -0.575612 0.573101 0.583288
vn -0.001541 -0.707106 0.707106
vn 0.583941 -0.566488 0.581467
vn -0.585703 -0.573128 0.573128
vn -0.703319 -0.710873 0.001009
vn -0.575612 -0.583288 -0.573103
vn 0.002544 0.703316 0.710872
vn -0.575612 0.573101 0.583288
vn 0.587508 0.579788 0.564517
vn 0.707108 0.707106 -0.000000
vn 0.566946 0.590133 -0.574730
vn -0.930574 0.366089 -0.003124
vn -0.654891 0.325705 -0.681934
vn -0.666631 -0.333483 -0.666627
vn 0.000299 0.376557 -0.926393
vn 0.663869 0.344328 -0.663865
vn 0.666631 -0.333483 -0.666628
vn 0.926393 0.376558 -0.000301
vn 0.681937 0.325707 0.654887
vn 0.666629 -0.333483 0.666630
vn 0.003124 0.366090 0.930574
vn -0.671272 0.314306 0.671272
vn -0.666629 -0.333483 0.666629
vn -0.666629 -0.333483 0.666629
vn -0.666631 -0.333483 -0.666627
vn 0.666631 -0.333483 -0.666628
vn 0.666629 -0.333483 0.666630
vn 0.004469 0.999980 -0.004470
vn 0.000299 0.376557 -0.926393
vn -0.654891 0.325705 -0.681934
vn -0.930574 0.366089 -0.003124
vn -0.671272 0.314306 0.671272
vn -0.666629 -0.333483 0.666629
vn -0.654891 0.325705 -0.681934
vn -0.666631 -0.333483 -0.666627
vn 0.663869 0.344328 -0.663865
vn 0.666631 -0.333483 -0.666628
vn 0.681937 0.325707 0.654887
vn 0.666629 -0.333483 0.666630
vn 0.003124 0.366090 0.930574
vn -0.671272 0.314306 0.671272
vn 0.681937 0.325707 0.654887
vn 0.926393 0.376558 -0.000301
vn 0.663869 0.344328 -0.663865
vn -0.577350 0.577350 0.577350
vn -0.577350 0.577350 -0.577350
vn -0.577350 -0.577350 -0.577350
vn -0.577350 -0.577350 0.577350
vn -0.577350 0.577350 -0.577350
vn 0.577350 0.577350 -0.577350
vn 0.577350 -0.577350 -0.577350
vn -0.577350 -0.577350 -0.577350
vn 0.577350 0.577350 -0.577350
vn 0.577350 0.577350 0.577350
vn 0.577350 -0.577350 0.577350
vn 0.577350 -0.577350 -0.577350
vn 0.577350 0.577350 0.577350
vn -0.577350 0.577350 0.577350
vn -0.577350 -0.577350 0.577350
vn 0.577350 -0.577350 0.577350
vn -0.577350 -0.577350 0.577350
vn -0.577350 -0.577350 -0.577350
vn 0.577350 -0.577350 -0.577350
vn 0.577350 -0.577350 0.577350
vn 0.577350 0.577350 0.577350
vn 0.577350 0.577350 -0.577350
vn -0.577350 0.577350 -0.577350
vn -0.577350 0.577350 0.577350
vn -0.577350 0.577350 0.577350
vn -0.577350 0.577350 -0.577350
vn -0.577350 -0.577350 -0.577350
vn -0.577350 -0.577350 0.577350
vn -0.577350 0.577350 -0.577350
vn 0.577350 0.577350 -0.577350
vn 0.577350 -0.577350 -0.577350
vn -0.577350 -0.577350 -0.577350
vn 0.577350 0.577350 -0.577350
vn 0.577350 0.577350 0.577350
vn 0.577350 -0.577350 0.577350
vn 0.577350 -0.577350 -0.577350
vn 0.577350 0.577350 0.577350
vn -0.577350 0.577350 0.577350
vn -0.577350 -0.577350 0.577350
vn 0.577350 -0.577350 0.577350
vn -0.577350 -0.577350 0.577350
vn -0.577350 -0.577350 -0.577350
vn 0.577350 -0.577350 -0.577350
vn 0.577350 -0.577350 0.577350
vn 0.577350 0.577350 0.577350
vn 0.577350 0.577350 -0.577350
vn -0.577350 0.577350 -0.577350
vn -0.577350 0.577350 0.577350
usemtl Material
f 1/1/1 2/2/2 3/3/3 4/4/4
f 2/2/2 5/5/5 6/6/6 3/3/3
f 3/3/3 6/6/6 7/7/7 8/8/8
f 4/4/4 3/3/3 8/8/8 9/9/9
usemtl Material_NONE
f 10/10/10 11/11/11 12/12/12 13/13/13
f 14/14/14 15/15/15 16/16/16 17/17/17
f 18/18/18 19/19/19 20/20/20 21/21/21
f 22/22/22 23/23/23 24/24/24 25/25/25
f 26/26/26 27/27/27 28/28/28 29/29/29
f 30/30/30 10/10/10 13/13/13 31/31/31
f 32/32/32 33/33/33 10/10/10 30/30/30
f 33/33/33 34/34/34 11/11/11 10/10/10
f 35/35/35 14/14/14 17/17/17 36/36/36
f 37/37/37 38/38/38 14/14/14 35/35/35
f 38/38/38 39/39/39 15/15/15 14/14/14
f 40/40/40 18/18/18 21/21/21 41/41/41
f 42/42/42 43/43/43 18/18/18 40/40/40
f 43/43/43 44/44/44 19/19/19 18/18/18
f 45/45/45 22/22/22 25/25/25 46/46/46
f 47/47/47 48/48/48 22/22/22 45/45/45
f 48/48/48 49/49/49 23/23/23 22/22/22
f 50/50/50 26/26/26 29/29/29 51/51/51
f 52/52/52 53/53/53 26/26/26 50/50/50
f 53/53/53 54/54/54 27/27/27 26/26/26
f 55/55/55 56/56/56 57/57/57
f 58/58/58 59/59/59 60/60/60
f 61/61/61 62/62/62 63/63/63
f 64/64/64 65/65/65 66/66/66
f 67/67/67 68/68/68 69/69/69 70/70/70
f 71/71/71 72/72/72 73/73/73 74/74/74
f 75/75/75 55/55/55 76/76/76
f 76/76/76 55/55/55 57/57/57
f 77/77/77 58/58/58 78/78/78
f 78/78/78 58/58/58 60/60/60
f 79/79/79 61/61/61 80/80/80
f 80/80/80 61/61/61 63/63/63
f 81/81/81 64/64/64 82/82/82
f 82/82/82 64/64/64 66/66/66
f 83/83/83 71/71/71 74/74/74 84/84/84
f 85/85/85 86/86/86 71/71/71 83/83/83
f 86/86/86 87/87/87 72/72/72 71/71/71
f 88/88/88 89/89/89 90/90/90 91/91/91
f 92/92/92 93/93/93 94/94/94 95/95/95
f 96/96/96 97/97/97 98/98/98 99/99/99
f 100/100/100 101/101/101 102/102/102 103/103/103
f 104/104/104 105/105/105 106/106/106 107/107/107
f 108/108/108 109/109/109 110/110/110 111/111/111
f 112/112/112 113/113/113 114/114/114 115/115/115
f 116/116/116 117/117/117 118/118/118 119/119/119
f 120/120/120 121/121/121 122/122/122 123/123/123
f 124/124/124 125/125/125 126/126/126 127/127/127
f 128/128/128 129/129/129 130/130/130 131/131/131
f 132/132/132 133/133/133 134/134/134 135/135/135
